<?xml version="1.0" encoding="utf-8"?>
<!-- Generator: Adobe Illustrator 19.1.0, SVG Export Plug-In . SVG Version: 6.00 Build 0)  -->
<svg version="1.1" id="Layer_1" xmlns="http://www.w3.org/2000/svg" xmlns:xlink="http://www.w3.org/1999/xlink" x="0px" y="0px"
	 viewBox="-18 31 70 70" enable-background="new -18 31 70 70" xml:space="preserve">
<path d="M1,66c0,4.4-3.6,8-8,8s-8-3.6-8-8s3.6-8,8-8S1,61.6,1,66z M17,58c-4.4,0-8,3.6-8,8s3.6,8,8,8s8-3.6,8-8S21.4,58,17,58z
	 M41,58c-4.4,0-8,3.6-8,8s3.6,8,8,8s8-3.6,8-8S45.4,58,41,58z"/>
</svg>
