<?xml version="1.0" encoding="utf-8"?>
<!-- Generator: Adobe Illustrator 19.1.0, SVG Export Plug-In . SVG Version: 6.00 Build 0)  -->
<svg version="1.1" id="Layer_1" xmlns="http://www.w3.org/2000/svg" xmlns:xlink="http://www.w3.org/1999/xlink" x="0px" y="0px"
	 viewBox="-24 25 82 82" enable-background="new -24 25 82 82" xml:space="preserve">
<path d="M19.2,45.6C9,45.6,0.8,53.9,0.8,64S9,82.4,19.2,82.4S37.6,74.2,37.6,64S29.3,45.6,19.2,45.6z M19.2,78.3
	c-7.9,0-14.4-6.4-14.4-14.4s6.4-14.4,14.4-14.4c7.9,0,14.4,6.4,14.4,14.4S27.1,78.3,19.2,78.3z M57,60.9c-0.1-2.2-1.5-3.8-3.5-3.8
	h-3.1c-1.6,0-3.1-0.6-4.2-1.7c-1.1-1.2-1.7-2.6-1.7-4.2s0.7-3.2,2-4.3l2-1.9c0.7-0.7,1.1-1.7,1.1-2.7s-0.4-2-1.1-2.7L43.9,35
	c-1.4-1.3-3.9-1.3-5.4,0.1L36.6,37c-1.2,1.3-2.7,1.9-4.4,1.9c-1.6,0-3.1-0.6-4.3-1.7c-1.2-1.2-1.8-2.6-1.8-4.2v-3.1
	c0-2.1-1.6-3.9-3.6-3.9H16c-2,0-3.7,1.8-3.7,3.9V33c0,1.6-0.6,3.1-1.8,4.2c-1.2,1.1-2.7,1.7-4.3,1.7c-1.6,0-3.1-0.7-4.3-2L0,35
	c-0.6-0.7-1.6-1.1-2.7-1.1c-1,0-2,0.4-2.7,1.1l-4.6,4.5c-0.7,0.7-1.1,1.7-1.1,2.7c0,1,0.4,2,1.1,2.7l1.9,1.9
	c1.3,1.1,1.9,2.7,1.9,4.3c0,1.6-0.6,3.1-1.7,4.2C-9,56.4-10.5,57-12.1,57h-3.1c-2.1,0-3.9,1.7-3.9,3.8V67c0,2.1,1.8,3.8,3.9,3.8h3.2
	c1.6,0,3.1,0.6,4.2,1.7c1.1,1.2,1.7,2.6,1.7,4.2s-0.7,3.2-2,4.4L-10,83c-1.4,1.5-1.4,3.9,0,5.3l4.5,4.5c1.2,1.3,3.9,1.5,5.4,0l2-2
	c1.1-1.2,2.7-1.9,4.3-1.9c1.6,0,3.1,0.6,4.2,1.7c1.2,1.1,1.8,2.6,1.8,4.2v3.1c0,2.1,1.7,3.9,3.8,3.9h6.2c2.1,0,3.8-1.8,3.8-3.9V95
	c0-1.6,0.6-3.1,1.8-4.2c1.2-1.1,2.6-1.7,4.2-1.7s3.2,0.7,4.4,2l1.9,1.9c1.3,1.3,3.9,1.4,5.4,0l4.6-4.5c1.5-1.5,1.5-3.8,0-5.4l-2-2
	c-1.2-1.1-1.9-2.6-1.9-4.3c0-1.6,0.6-3.1,1.7-4.3c1.2-1.2,2.7-1.8,4.2-1.8h3.1c2,0,3.5-1.5,3.5-3.6L57,60.9z M53,66.7h-2.6
	c-2.6,0-5.1,1.1-7.1,3.1c-1.9,1.9-2.9,4.4-2.9,7.1c0,2.8,1.1,5.4,3.2,7.2l1.8,1.8l-4.3,4.3l-1.7-1.7c-2-2.1-4.5-3.2-7.3-3.2
	c-2.6,0-5.1,1-7,2.9s-3,4.4-3,7.1v3h-5.8v-3c0-2.7-1.1-5.2-3-7.1c-1.9-1.8-4.4-2.8-7-2.8c-2.7,0-5.3,1.2-7.2,3.1l-1.8,1.8L-7,86.1
	l1.6-1.6c2.1-1.9,3.2-4.5,3.2-7.3c0-2.6-1-5.1-2.9-7s-4.4-3-7.1-3h-3v-5.9h3c2.7,0,5.2-1.1,7.1-3c1.9-1.9,2.9-4.4,2.9-7
	c0-2.8-1.2-5.4-3.2-7.2L-7,42.2l4.2-4.2l1.7,1.7c1.9,2,4.5,3.2,7.2,3.2c2.6,0,5.1-1,7-2.9s3-4.4,3-7.1v-3h5.6v3
	c0,2.6,1.1,5.1,3.1,7.1c1.9,1.8,4.4,2.8,7.1,2.8c2.8,0,5.4-1.1,7.3-3.2l1.7-1.7l4.3,4.2l-1.7,1.7c-2.1,1.9-3.2,4.5-3.2,7.2
	c0,2.6,1,5.1,2.9,7s4.4,3,7.1,3h2.6L53,66.7z"/>
</svg>
