<?xml version="1.0" encoding="utf-8"?>
<!-- Generator: Adobe Illustrator 19.1.0, SVG Export Plug-In . SVG Version: 6.00 Build 0)  -->
<svg version="1.1" id="Layer_1" xmlns="http://www.w3.org/2000/svg" xmlns:xlink="http://www.w3.org/1999/xlink" x="0px" y="0px"
	 viewBox="-23 26 80 80" enable-background="new -23 26 80 80" xml:space="preserve">
<path d="M51,38H33v-8.1c0-2.2-1.8-3.9-3.9-3.9H8.9C6.7,26,5,27.8,5,29.9V38h-18v4h6.1l3.8,60.4c0.1,2,1.8,3.6,3.8,3.6h36.5
	c2.1,0,3.8-1.6,4-3.7L45,42h6.1v-4H51z M9,30h20v8H9V30z M37.1,102H0.9l-3.8-60h43.7L37.1,102z M21,96h-4V48h4V96z M7,96.1l-2-48
	l4-0.2l2,48L7,96.1z M31,96.1l-4-0.2l2-48l4,0.2L31,96.1z"/>
</svg>
