<?xml version="1.0" encoding="utf-8"?>
<!-- Generator: Adobe Illustrator 19.1.0, SVG Export Plug-In . SVG Version: 6.00 Build 0)  -->
<svg version="1.1" id="Layer_1" xmlns="http://www.w3.org/2000/svg" xmlns:xlink="http://www.w3.org/1999/xlink" x="0px" y="0px"
	 viewBox="-21 28 76 76" enable-background="new -21 28 76 76" xml:space="preserve">
<path d="M46.6,42c0,0-36.7,0-39.8,0c-1.2,0-1.9-2.5-3.9-4.8C1.1,35.1-1.5,34-3,34c-1.9,0-9.1,0-9.1,0c-3.9,0-7,2.2-7,6.1v50.7
	c0,3.9,3.2,7.3,7,7.3h58.6c3.9,0,6.4-3.4,6.4-7.3V48.2C53,44.3,50.5,42,46.6,42z M49,90.7c0,1.5-0.7,3.3-2.4,3.3H-12
	c-1.6,0-3-1.6-3-3.3V58h64V90.7z M49,54h-64V40.1c0-2.2,2.6-2.1,3-2.1h5c0,0,1.8,0,2.8,0s2.9,0.4,4.3,2.1c3,3.6,3.1,5.9,6.7,5.9
	h39.8c1.7,0,2.4,0.5,2.4,2.2C49,48.2,49,54,49,54z"/>
</svg>
