<svg xmlns="http://www.w3.org/2000/svg" id="Layer_1" viewBox="-15 -150.2 287.4 432.2">
  <style>
    .st0{fill:#FFFFFF;}
  </style>
  <path d="M190.6 123.3c.7-.6 1.4-1.1 2-1.6l12.9-9.9c36.1-29.3 66.9-67.9 66.9-118.3 0-79.1-64-143.3-143-143.7H-15v432.3H0l195-150.3-4.4-8.5zm4.8 9.3L1.5 282h14.7l183.4-141.2m.6 1.2L18.4 282h14l171.8-132.3m.9 1.7L35.5 282h13.1l160.2-123.4m1.2 2.4L52.8 282h12.3l148.4-114.2m1.3 2.6L69.9 282h11.5l136.7-105.3m1.6 3L86.9 282h10.6l125.2-96.4m1.8 3.6L103.9 282h9.9l113.5-87.4m2.1 4L121 282h9l101.9-78.4m2.3 4.4l-96.1 74h8.2l90.2-69.5m2.5 4.9L155.1 282h7.3l78.7-60.6m2.8 5.4L172.1 282h6.6l67-51.6m3.1 5.9L189.4 282h5.8l55.2-42.5m3.2 6.2L206.5 282h4.9l43.6-33.6m3.5 6.7l-35 26.9h4.1l32-24.7m3.7 7.2L240.5 282h3.3l20.4-15.7m-6.4 15.7h2.5l8.6-6.6-.7-1.4" class="st0"/>
</svg>
