<?xml version="1.0" encoding="utf-8"?>
<!-- Generator: Adobe Illustrator 19.1.0, SVG Export Plug-In . SVG Version: 6.00 Build 0)  -->
<svg version="1.1" id="Layer_1" xmlns="http://www.w3.org/2000/svg" xmlns:xlink="http://www.w3.org/1999/xlink" x="0px" y="0px"
	 viewBox="-15 -150.2 287.4 432.2" enable-background="new -15 -150.2 287.4 432.2" xml:space="preserve">
<path fill="#439F47" d="M190.6,123.3c0.7-0.6,1.4-1.1,2-1.6l12.9-9.9c36.1-29.3,66.9-67.9,66.9-118.3c0-79.1-64-143.3-143-143.7H-15
	v432.3H0l195-150.3L190.6,123.3L190.6,123.3z M195.4,132.6L1.5,282h14.7l183.4-141.2 M200.2,142L18.4,282h14l171.8-132.3
	 M205.1,151.4L35.5,282h13.1l160.2-123.4 M210,161L52.8,282h12.3l148.4-114.2 M214.8,170.4L69.9,282h11.5l136.7-105.3 M219.7,179.7
	L86.9,282h10.6l125.2-96.4 M224.5,189.2L103.9,282h9.9l113.5-87.4 M229.4,198.6L121,282h9l101.9-78.4 M234.2,208l-96.1,74h8.2
	l90.2-69.5 M239,217.4L155.1,282h7.3l78.7-60.6 M243.9,226.8L172.1,282h6.6l67-51.6 M248.8,236.3L189.4,282h5.8l55.2-42.5
	 M253.6,245.7L206.5,282h4.9l43.6-33.6 M258.5,255.1l-35,26.9h4.1l32-24.7 M263.3,264.5L240.5,282h3.3l20.4-15.7 M257.8,282h2.5
	l8.6-6.6l-0.7-1.4"/>
</svg>
